<?xml version="1.0" encoding="utf-8"?>
<!-- Generator: Adobe Illustrator 26.1.0, SVG Export Plug-In . SVG Version: 6.00 Build 0)  -->
<svg version="1.1" id="Lager_1" xmlns="http://www.w3.org/2000/svg" xmlns:xlink="http://www.w3.org/1999/xlink" x="0px" y="0px"
	 viewBox="0 0 2048 2048" style="enable-background:new 0 0 2048 2048;" xml:space="preserve">
<style type="text/css">
	.st0{fill:#9D9D9C;}
	.st1{fill:#FFFFFF;}
</style>
<g>
	<path class="st0" d="M1024,2007c-132.72,0-261.45-25.99-382.62-77.24c-117.05-49.51-222.18-120.39-312.47-210.68
		s-161.17-195.41-210.68-312.47C66.99,1285.45,41,1156.71,41,1024c0-132.72,25.99-261.45,77.24-382.62
		c49.51-117.05,120.39-222.18,210.68-312.47s195.41-161.17,312.47-210.68C762.55,66.99,891.28,41,1024,41
		c132.71,0,261.45,25.99,382.62,77.24c117.05,49.51,222.18,120.39,312.47,210.68s161.17,195.41,210.68,312.47
		C1981.01,762.55,2007,891.28,2007,1024c0,132.71-25.99,261.45-77.24,382.62c-49.51,117.05-120.39,222.18-210.68,312.47
		s-195.41,161.17-312.47,210.68C1285.45,1981.01,1156.71,2007,1024,2007z"/>
	<path class="st1" d="M1024,66c65.03,0,130.01,6.55,193.12,19.46c61.49,12.58,121.97,31.36,179.76,55.8
		c56.75,24.01,111.5,53.72,162.71,88.32c50.74,34.28,98.45,73.65,141.82,117.01s82.73,91.08,117.01,141.82
		c34.6,51.21,64.31,105.96,88.32,162.71c24.44,57.79,43.22,118.27,55.8,179.76C1975.45,893.99,1982,958.97,1982,1024
		s-6.55,130.01-19.46,193.12c-12.58,61.49-31.36,121.97-55.8,179.76c-24.01,56.75-53.72,111.5-88.32,162.71
		c-34.28,50.74-73.65,98.45-117.01,141.82s-91.08,82.73-141.82,117.01c-51.21,34.6-105.96,64.31-162.71,88.32
		c-57.79,24.44-118.27,43.22-179.76,55.8c-63.12,12.92-128.09,19.46-193.12,19.46s-130.01-6.55-193.12-19.46
		c-61.49-12.58-121.97-31.36-179.76-55.8c-56.75-24.01-111.5-53.72-162.71-88.32c-50.74-34.28-98.45-73.65-141.82-117.01
		s-82.73-91.08-117.01-141.82c-34.6-51.21-64.31-105.96-88.32-162.71c-24.44-57.79-43.22-118.27-55.8-179.76
		C72.55,1154.01,66,1089.03,66,1024s6.55-130.01,19.46-193.12c12.58-61.49,31.36-121.97,55.8-179.76
		c24.01-56.75,53.72-111.5,88.32-162.71c34.28-50.74,73.65-98.45,117.01-141.82s91.08-82.73,141.82-117.01
		c51.21-34.6,105.96-64.31,162.71-88.32c57.79-24.44,118.27-43.22,179.76-55.8C893.99,72.55,958.97,66,1024,66 M1024,16
		C467.3,16,16,467.3,16,1024s451.3,1008,1008,1008s1008-451.3,1008-1008S1580.7,16,1024,16L1024,16z"/>
</g>
</svg>
